<svg width="435" height="452" viewBox="0 0 435 452" fill="none" xmlns="http://www.w3.org/2000/svg">
<mask id="path-1-outside-1_21_63" maskUnits="userSpaceOnUse" x="156.826" y="130.826" width="123" height="160" fill="black">
<rect fill="white" x="156.826" y="130.826" width="123" height="160"/>
<path d="M217.756 289.044C211.836 289.044 205.398 288.526 198.442 287.49C191.486 286.454 184.53 284.974 177.574 283.05C170.766 281.126 164.55 278.832 158.926 276.168L170.248 245.532C174.984 250.268 180.09 254.264 185.566 257.52C191.19 260.776 197.036 263.292 203.104 265.068C209.172 266.696 215.24 267.806 221.308 268.398C225.6 266.474 228.56 264.18 230.188 261.516C231.964 258.852 232.852 256.262 232.852 253.746C232.852 249.602 231.372 246.124 228.412 243.312C225.452 240.352 221.53 237.688 216.646 235.32C211.91 232.804 206.582 230.214 200.662 227.55C194.002 224.442 187.416 220.89 180.904 216.894C174.54 212.75 169.212 207.718 164.92 201.798C160.628 195.878 158.482 188.552 158.482 179.82C158.482 170.644 161.072 162.504 166.252 155.4C171.432 148.296 178.684 142.746 188.008 138.75C197.332 134.606 208.284 132.534 220.864 132.534C226.488 132.534 232.408 132.978 238.624 133.866C244.988 134.606 251.056 135.642 256.828 136.974C262.6 138.306 267.632 139.86 271.924 141.636L259.492 174.936C252.684 167.536 245.284 162.134 237.292 158.73C229.3 155.178 220.716 153.106 211.54 152.514C208.136 154.438 205.62 156.88 203.992 159.84C202.512 162.8 201.772 165.538 201.772 168.054C201.772 171.754 203.474 175.01 206.878 177.822C210.282 180.486 214.648 183.076 219.976 185.592C225.452 187.96 231.298 190.624 237.514 193.584C244.174 196.692 250.612 200.318 256.828 204.462C263.192 208.458 268.372 213.49 272.368 219.558C276.512 225.626 278.584 233.322 278.584 242.646C278.584 252.562 275.772 260.998 270.148 267.954C264.672 274.91 257.346 280.164 248.17 283.716C238.994 287.268 228.856 289.044 217.756 289.044ZM209.098 278.61L159.148 276.168C158.852 272.764 158.852 268.25 159.148 262.626C159.444 257.002 159.962 251.304 160.702 245.532C161.59 239.76 162.552 235.024 163.588 231.324H183.568L209.098 278.61ZM243.286 185.592L227.302 143.19L271.924 141.636C271.776 146.224 271.48 151.108 271.036 156.288C270.592 161.32 270 166.352 269.26 171.384C268.668 176.416 267.78 181.152 266.596 185.592H243.286Z"/>
</mask>
<path d="M217.756 289.044C211.836 289.044 205.398 288.526 198.442 287.49C191.486 286.454 184.53 284.974 177.574 283.05C170.766 281.126 164.55 278.832 158.926 276.168L170.248 245.532C174.984 250.268 180.09 254.264 185.566 257.52C191.19 260.776 197.036 263.292 203.104 265.068C209.172 266.696 215.24 267.806 221.308 268.398C225.6 266.474 228.56 264.18 230.188 261.516C231.964 258.852 232.852 256.262 232.852 253.746C232.852 249.602 231.372 246.124 228.412 243.312C225.452 240.352 221.53 237.688 216.646 235.32C211.91 232.804 206.582 230.214 200.662 227.55C194.002 224.442 187.416 220.89 180.904 216.894C174.54 212.75 169.212 207.718 164.92 201.798C160.628 195.878 158.482 188.552 158.482 179.82C158.482 170.644 161.072 162.504 166.252 155.4C171.432 148.296 178.684 142.746 188.008 138.75C197.332 134.606 208.284 132.534 220.864 132.534C226.488 132.534 232.408 132.978 238.624 133.866C244.988 134.606 251.056 135.642 256.828 136.974C262.6 138.306 267.632 139.86 271.924 141.636L259.492 174.936C252.684 167.536 245.284 162.134 237.292 158.73C229.3 155.178 220.716 153.106 211.54 152.514C208.136 154.438 205.62 156.88 203.992 159.84C202.512 162.8 201.772 165.538 201.772 168.054C201.772 171.754 203.474 175.01 206.878 177.822C210.282 180.486 214.648 183.076 219.976 185.592C225.452 187.96 231.298 190.624 237.514 193.584C244.174 196.692 250.612 200.318 256.828 204.462C263.192 208.458 268.372 213.49 272.368 219.558C276.512 225.626 278.584 233.322 278.584 242.646C278.584 252.562 275.772 260.998 270.148 267.954C264.672 274.91 257.346 280.164 248.17 283.716C238.994 287.268 228.856 289.044 217.756 289.044ZM209.098 278.61L159.148 276.168C158.852 272.764 158.852 268.25 159.148 262.626C159.444 257.002 159.962 251.304 160.702 245.532C161.59 239.76 162.552 235.024 163.588 231.324H183.568L209.098 278.61ZM243.286 185.592L227.302 143.19L271.924 141.636C271.776 146.224 271.48 151.108 271.036 156.288C270.592 161.32 270 166.352 269.26 171.384C268.668 176.416 267.78 181.152 266.596 185.592H243.286Z" fill="white"/>
<path d="M198.442 287.49L198.589 286.501L198.589 286.501L198.442 287.49ZM177.574 283.05L177.302 284.012L177.307 284.013L177.574 283.05ZM158.926 276.168L157.988 275.821L157.67 276.68L158.498 277.071L158.926 276.168ZM170.248 245.532L170.955 244.825L169.851 243.721L169.31 245.185L170.248 245.532ZM185.566 257.52L185.055 258.379L185.065 258.385L185.566 257.52ZM203.104 265.068L202.823 266.027L202.834 266.031L202.845 266.034L203.104 265.068ZM221.308 268.398L221.211 269.393L221.475 269.419L221.717 269.31L221.308 268.398ZM230.188 261.516L229.356 260.961L229.345 260.977L229.334 260.994L230.188 261.516ZM228.412 243.312L227.705 244.019L227.714 244.028L227.723 244.037L228.412 243.312ZM216.646 235.32L216.177 236.203L216.193 236.211L216.209 236.219L216.646 235.32ZM200.662 227.55L200.239 228.456L200.251 228.462L200.662 227.55ZM180.904 216.894L180.358 217.732L180.369 217.739L180.381 217.746L180.904 216.894ZM164.92 201.798L164.11 202.385L164.11 202.385L164.92 201.798ZM166.252 155.4L167.06 155.989L167.06 155.989L166.252 155.4ZM188.008 138.75L188.402 139.669L188.414 139.663L188.008 138.75ZM238.624 133.866L238.482 134.856L238.495 134.857L238.508 134.859L238.624 133.866ZM271.924 141.636L272.861 141.985L273.198 141.081L272.306 140.712L271.924 141.636ZM259.492 174.936L258.756 175.613L259.859 176.812L260.429 175.285L259.492 174.936ZM237.292 158.73L236.886 159.643L236.893 159.647L236.9 159.65L237.292 158.73ZM211.54 152.514L211.604 151.516L211.307 151.497L211.048 151.643L211.54 152.514ZM203.992 159.84L203.115 159.358L203.106 159.375L203.097 159.392L203.992 159.84ZM206.878 177.822L206.241 178.593L206.251 178.601L206.261 178.609L206.878 177.822ZM219.976 185.592L219.549 186.496L219.564 186.503L219.579 186.51L219.976 185.592ZM237.514 193.584L237.084 194.487L237.091 194.49L237.514 193.584ZM256.828 204.462L256.273 205.294L256.284 205.301L256.296 205.309L256.828 204.462ZM272.368 219.558L271.533 220.108L271.537 220.115L271.542 220.122L272.368 219.558ZM270.148 267.954L269.37 267.325L269.362 267.335L270.148 267.954ZM248.17 283.716L248.531 284.648L248.531 284.648L248.17 283.716ZM209.098 278.61L209.049 279.608L210.82 279.695L209.978 278.135L209.098 278.61ZM159.148 276.168L158.151 276.254L158.227 277.124L159.099 277.166L159.148 276.168ZM159.148 262.626L160.146 262.678L159.148 262.626ZM160.702 245.532L159.713 245.38L159.711 245.392L159.71 245.405L160.702 245.532ZM163.588 231.324V230.324H162.829L162.625 231.054L163.588 231.324ZM183.568 231.324L184.448 230.849L184.164 230.324H183.568V231.324ZM243.286 185.592L242.35 185.944L242.594 186.592H243.286V185.592ZM227.302 143.19L227.267 142.19L225.875 142.239L226.366 143.542L227.302 143.19ZM271.924 141.636L272.923 141.668L272.958 140.599L271.889 140.636L271.924 141.636ZM271.036 156.288L272.032 156.376L272.032 156.373L271.036 156.288ZM269.26 171.384L268.27 171.238L268.268 171.252L268.267 171.267L269.26 171.384ZM266.596 185.592V186.592H267.364L267.562 185.849L266.596 185.592ZM217.756 289.044V288.044C211.893 288.044 205.505 287.531 198.589 286.501L198.442 287.49L198.294 288.479C205.29 289.521 211.778 290.044 217.756 290.044V289.044ZM198.442 287.49L198.589 286.501C191.674 285.471 184.758 283.999 177.84 282.086L177.574 283.05L177.307 284.013C184.301 285.948 191.297 287.437 198.294 288.479L198.442 287.49ZM177.574 283.05L177.846 282.087C171.084 280.177 164.921 277.901 159.354 275.264L158.926 276.168L158.498 277.071C164.178 279.762 170.447 282.075 177.302 284.012L177.574 283.05ZM158.926 276.168L159.864 276.514L171.186 245.878L170.248 245.532L169.31 245.185L157.988 275.821L158.926 276.168ZM170.248 245.532L169.541 246.239C174.332 251.031 179.504 255.079 185.055 258.379L185.566 257.52L186.077 256.66C180.676 253.449 175.635 249.505 170.955 244.825L170.248 245.532ZM185.566 257.52L185.065 258.385C190.756 261.68 196.676 264.228 202.823 266.027L203.104 265.068L203.385 264.108C197.396 262.355 191.623 259.871 186.067 256.654L185.566 257.52ZM203.104 265.068L202.845 266.034C208.964 267.675 215.086 268.795 221.211 269.393L221.308 268.398L221.405 267.402C215.393 266.816 209.379 265.716 203.363 264.102L203.104 265.068ZM221.308 268.398L221.717 269.31C226.105 267.343 229.267 264.94 231.041 262.037L230.188 261.516L229.334 260.994C227.853 263.419 225.094 265.604 220.899 267.485L221.308 268.398ZM230.188 261.516L231.02 262.07C232.876 259.287 233.852 256.507 233.852 253.746H232.852H231.852C231.852 256.017 231.052 258.417 229.356 260.961L230.188 261.516ZM232.852 253.746H233.852C233.852 249.332 232.263 245.591 229.1 242.587L228.412 243.312L227.723 244.037C230.481 246.657 231.852 249.871 231.852 253.746H232.852ZM228.412 243.312L229.119 242.605C226.06 239.546 222.038 236.823 217.082 234.42L216.646 235.32L216.209 236.219C221.021 238.552 224.843 241.157 227.705 244.019L228.412 243.312ZM216.646 235.32L217.115 234.437C212.356 231.908 207.008 229.309 201.072 226.638L200.662 227.55L200.251 228.462C206.155 231.118 211.463 233.699 216.177 236.203L216.646 235.32ZM200.662 227.55L201.085 226.643C194.46 223.552 187.908 220.018 181.427 216.041L180.904 216.894L180.381 217.746C186.924 221.761 193.543 225.331 200.239 228.456L200.662 227.55ZM180.904 216.894L181.449 216.056C175.184 211.976 169.947 207.028 165.729 201.211L164.92 201.798L164.11 202.385C168.477 208.408 173.895 213.523 180.358 217.732L180.904 216.894ZM164.92 201.798L165.729 201.211C161.584 195.493 159.482 188.383 159.482 179.82H158.482H157.482C157.482 188.721 159.672 196.263 164.11 202.385L164.92 201.798ZM158.482 179.82H159.482C159.482 170.846 162.01 162.914 167.06 155.989L166.252 155.4L165.444 154.811C160.133 162.093 157.482 170.442 157.482 179.82H158.482ZM166.252 155.4L167.06 155.989C172.118 149.051 179.217 143.605 188.402 139.669L188.008 138.75L187.614 137.831C178.15 141.886 170.745 147.54 165.444 154.811L166.252 155.4ZM188.008 138.75L188.414 139.663C197.584 135.588 208.392 133.534 220.864 133.534V132.534V131.534C208.176 131.534 197.08 133.623 187.602 137.836L188.008 138.75ZM220.864 132.534V133.534C226.435 133.534 232.308 133.974 238.482 134.856L238.624 133.866L238.765 132.876C232.508 131.982 226.54 131.534 220.864 131.534V132.534ZM238.624 133.866L238.508 134.859C244.838 135.595 250.87 136.625 256.603 137.948L256.828 136.974L257.053 135.999C251.242 134.658 245.137 133.616 238.739 132.872L238.624 133.866ZM256.828 136.974L256.603 137.948C262.335 139.271 267.312 140.81 271.541 142.56L271.924 141.636L272.306 140.712C267.951 138.91 262.864 137.341 257.053 135.999L256.828 136.974ZM271.924 141.636L270.987 141.286L258.555 174.586L259.492 174.936L260.429 175.285L272.861 141.985L271.924 141.636ZM259.492 174.936L260.228 174.259C253.339 166.77 245.825 161.277 237.684 157.81L237.292 158.73L236.9 159.65C244.742 162.99 252.029 168.301 258.756 175.613L259.492 174.936ZM237.292 158.73L237.698 157.816C229.592 154.213 220.892 152.115 211.604 151.516L211.54 152.514L211.475 153.512C220.539 154.096 229.007 156.142 236.886 159.643L237.292 158.73ZM211.54 152.514L211.048 151.643C207.508 153.644 204.846 156.211 203.115 159.358L203.992 159.84L204.868 160.322C206.393 157.549 208.763 155.232 212.032 153.384L211.54 152.514ZM203.992 159.84L203.097 159.392C201.569 162.449 200.772 165.341 200.772 168.054H201.772H202.772C202.772 165.734 203.455 163.15 204.886 160.287L203.992 159.84ZM201.772 168.054H200.772C200.772 172.11 202.656 175.631 206.241 178.593L206.878 177.822L207.515 177.051C204.291 174.388 202.772 171.397 202.772 168.054H201.772ZM206.878 177.822L206.261 178.609C209.741 181.332 214.176 183.959 219.549 186.496L219.976 185.592L220.403 184.687C215.119 182.193 210.823 179.639 207.494 177.034L206.878 177.822ZM219.976 185.592L219.579 186.51C225.042 188.872 230.877 191.531 237.084 194.487L237.514 193.584L237.944 192.681C231.718 189.716 225.861 187.047 220.373 184.674L219.976 185.592ZM237.514 193.584L237.091 194.49C243.704 197.576 250.098 201.177 256.273 205.294L256.828 204.462L257.382 203.63C251.125 199.458 244.643 195.807 237.937 192.677L237.514 193.584ZM256.828 204.462L256.296 205.309C262.543 209.231 267.618 214.163 271.533 220.108L272.368 219.558L273.203 219.008C269.125 212.816 263.84 207.684 257.359 203.615L256.828 204.462ZM272.368 219.558L271.542 220.122C275.545 225.984 277.584 233.469 277.584 242.646H278.584H279.584C279.584 233.175 277.478 225.268 273.193 218.994L272.368 219.558ZM278.584 242.646H277.584C277.584 252.359 274.834 260.566 269.37 267.325L270.148 267.954L270.925 268.582C276.709 261.429 279.584 252.764 279.584 242.646H278.584ZM270.148 267.954L269.362 267.335C264.009 274.135 256.837 279.288 247.809 282.783L248.17 283.716L248.531 284.648C257.855 281.039 265.335 275.684 270.933 268.572L270.148 267.954ZM248.17 283.716L247.809 282.783C238.762 286.285 228.748 288.044 217.756 288.044V289.044V290.044C228.963 290.044 239.226 288.25 248.531 284.648L248.17 283.716ZM209.098 278.61L209.147 277.611L159.197 275.169L159.148 276.168L159.099 277.166L209.049 279.608L209.098 278.61ZM159.148 276.168L160.144 276.081C159.854 272.743 159.851 268.281 160.146 262.678L159.148 262.626L158.149 262.573C157.852 268.218 157.85 272.784 158.151 276.254L159.148 276.168ZM159.148 262.626L160.146 262.678C160.441 257.08 160.957 251.407 161.694 245.659L160.702 245.532L159.71 245.405C158.967 251.2 158.446 256.923 158.149 262.573L159.148 262.626ZM160.702 245.532L161.69 245.684C162.575 239.933 163.529 235.24 164.551 231.593L163.588 231.324L162.625 231.054C161.574 234.807 160.605 239.586 159.713 245.38L160.702 245.532ZM163.588 231.324V232.324H183.568V231.324V230.324H163.588V231.324ZM183.568 231.324L182.688 231.799L208.218 279.085L209.098 278.61L209.978 278.135L184.448 230.849L183.568 231.324ZM243.286 185.592L244.221 185.239L228.237 142.837L227.302 143.19L226.366 143.542L242.35 185.944L243.286 185.592ZM227.302 143.19L227.336 144.189L271.958 142.635L271.924 141.636L271.889 140.636L227.267 142.19L227.302 143.19ZM271.924 141.636L270.924 141.603C270.777 146.172 270.482 151.038 270.039 156.202L271.036 156.288L272.032 156.373C272.477 151.178 272.775 146.276 272.923 141.668L271.924 141.636ZM271.036 156.288L270.04 156.2C269.597 161.212 269.008 166.225 268.27 171.238L269.26 171.384L270.249 171.529C270.992 166.478 271.586 161.427 272.032 156.376L271.036 156.288ZM269.26 171.384L268.267 171.267C267.68 176.256 266.8 180.945 265.629 185.334L266.596 185.592L267.562 185.849C268.759 181.359 269.656 176.575 270.253 171.501L269.26 171.384ZM266.596 185.592V184.592H243.286V185.592V186.592H266.596V185.592Z" fill="white" mask="url(#path-1-outside-1_21_63)"/>
<path d="M30.9197 224.245C32.148 262.926 45.3792 300.267 68.7792 331.092C92.1792 361.916 124.589 384.698 161.516 396.279C198.443 407.86 238.058 407.667 274.87 395.726C311.682 383.785 343.868 360.688 366.966 329.636" stroke="white" stroke-width="53" stroke-linecap="round"/>
<path d="M403.826 218.326C403.826 175.599 389.155 134.168 362.267 100.962C335.38 67.7566 297.906 44.7899 256.113 35.9038C214.321 27.0176 170.745 32.7508 132.673 52.1444C94.6016 71.5381 64.3434 103.416 46.9597 142.446" stroke="white" stroke-width="53" stroke-linecap="round"/>
<circle cx="287.5" cy="284.5" r="15.5" fill="white"/>
</svg>
